<svg xmlns:rdf="http://www.w3.org/1999/02/22-rdf-syntax-ns#" xmlns="http://www.w3.org/2000/svg" height="22" width="24" version="1.1" xmlns:cc="http://creativecommons.org/ns#" xmlns:dc="http://purl.org/dc/elements/1.1/" viewBox="0 0 6.3499997 5.8208335">
 <g fill-opacity=".659" fill="#fff" transform="matrix(.817 0 0 .817 -.236 -237)">
  <path d="m3.41 295v-3.07l2.69 1.49zm0.8-4c-1.63 0-2.72 0.078-2.72 0.078-0.152 0.0173-0.485 0.0173-0.78 0.329 0 0-0.238 0.234-0.307 0.771-0.0823 0.628-0.078 1.26-0.078 1.26v0.589s-0.00433 0.628 0.078 1.26c0.0693 0.533 0.307 0.771 0.307 0.771 0.295 0.308 0.684 0.299 0.858 0.329 0 0 0.619 0.0606 2.64 0.078 1.63 0 2.72-0.0823 2.72-0.0823 0.152-0.0173 0.485-0.0173 0.78-0.325 0 0 0.238-0.238 0.307-0.771 0.0823-0.628 0.078-1.26 0.078-1.26v-0.589s0.00433-0.628-0.078-1.26c-0.0693-0.537-0.307-0.771-0.307-0.771-0.295-0.312-0.628-0.312-0.78-0.329 0 0-1.08-0.078-2.72-0.078z" fill-opacity=".659" fill="#fff"/>
 </g>
</svg>
